# xmcd
#
# Track frame offsets:
#	150
#	10552
#	25767
#	39732
#	53842
#	69245
#	87327
#	99350
#	112677
#	128722
#	144985
#	160430
#	174175
#	186937
#	200515
#	212315
#	224650
#	237707
#
# Disc length: 3379 seconds
#
# Revision: 1
# Processed by: cddbd v1.5.1PL0 Copyright (c) Steve Scherf et al.
# Submitted via: audiograbber 1.82.01
#
DISCID=ef0d3112
DTITLE=Régis Marques e Grupo Rodeio - O melhor
DYEAR=1994
DGENRE=Gaúchos
TTITLE0=Bombachudo
TTITLE1=Bochincho Com o Bolicheiro
TTITLE2=Se Enredando Nas Esporas
TTITLE3=Amor e Saudade
TTITLE4=Hortênsias, Serra e Cor
TTITLE5=Bamo Farrear
TTITLE6=Camperona
TTITLE7=Prosa de Cumpadre
TTITLE8=Peleando Com a Srte
TTITLE9=Nasceu Um Bugiu
TTITLE10=Distante do Pago
TTITLE11=A Gaita do Rodeio
TTITLE12=Bolicho
TTITLE13=Fandango de Rodeio
TTITLE14=Vaneira de Galpão
TTITLE15=Xote do Vô Zica
TTITLE16=Cantiga de Estradeiro
TTITLE17=Bailado dos Namorados
EXTD=
EXTT0=
EXTT1=
EXTT2=
EXTT3=
EXTT4=
EXTT5=
EXTT6=
EXTT7=
EXTT8=
EXTT9=
EXTT10=
EXTT11=
EXTT12=
EXTT13=
EXTT14=
EXTT15=
EXTT16=
EXTT17=
PLAYORDER=
